<?xml version="1.0" encoding="UTF-8" standalone="no"?>
<!-- Created with Inkscape (http://www.inkscape.org/) -->

<svg
   xmlns:dc="http://purl.org/dc/elements/1.1/"
   xmlns:cc="http://creativecommons.org/ns#"
   xmlns:rdf="http://www.w3.org/1999/02/22-rdf-syntax-ns#"
   xmlns:svg="http://www.w3.org/2000/svg"
   xmlns="http://www.w3.org/2000/svg"
   xmlns:sodipodi="http://sodipodi.sourceforge.net/DTD/sodipodi-0.dtd"
   xmlns:inkscape="http://www.inkscape.org/namespaces/inkscape"
   width="156"
   height="62"
   viewBox="0 0 41.274992 16.404172"
   version="1.1"
   id="svg8"
   inkscape:version="0.92.5 (2060ec1f9f, 2020-04-08)"
   sodipodi:docname="logo4.svg">
  <defs
     id="defs2">
    <marker
       inkscape:stockid="Arrow1Mend"
       orient="auto"
       refY="0"
       refX="0"
       id="Arrow1Mend"
       style="overflow:visible"
       inkscape:isstock="true">
      <path
         id="path941"
         d="M 0,0 5,-5 -12.5,0 5,5 Z"
         style="fill:#ffffff;fill-opacity:1;fill-rule:evenodd;stroke:#594a4a;stroke-width:1.00000003pt;stroke-opacity:1"
         transform="matrix(-0.4,0,0,-0.4,-4,0)"
         inkscape:connector-curvature="0" />
    </marker>
  </defs>
  <sodipodi:namedview
     id="base"
     pagecolor="#000000"
     bordercolor="#666666"
     borderopacity="1.0"
     inkscape:pageopacity="0"
     inkscape:pageshadow="2"
     inkscape:zoom="2.8"
     inkscape:cx="46.714287"
     inkscape:cy="76.835451"
     inkscape:document-units="mm"
     inkscape:current-layer="layer1"
     showgrid="false"
     units="px"
     inkscape:window-width="1920"
     inkscape:window-height="1016"
     inkscape:window-x="0"
     inkscape:window-y="27"
     inkscape:window-maximized="1" />
  <metadata
     id="metadata5">
    <rdf:RDF>
      <cc:Work
         rdf:about="">
        <dc:format>image/svg+xml</dc:format>
        <dc:type
           rdf:resource="http://purl.org/dc/dcmitype/StillImage" />
        <dc:title></dc:title>
      </cc:Work>
    </rdf:RDF>
  </metadata>
  <g
     inkscape:label="Layer 1"
     inkscape:groupmode="layer"
     id="layer1"
     transform="translate(0,-280.59575)">
    <text
       xml:space="preserve"
       style="font-style:normal;font-weight:normal;font-size:7.07095242px;line-height:1.25;font-family:sans-serif;letter-spacing:0px;word-spacing:0px;fill:#000000;fill-opacity:1;stroke:none;stroke-width:0.37880105"
       x="15.15266"
       y="294.68423"
       id="text2515"><tspan
         sodipodi:role="line"
         id="tspan2513"
         x="15.15266"
         y="294.68423"
         style="fill:#ffffff;fill-opacity:1;stroke-width:0.37880105">nuc-lab</tspan></text>
    <path
       style="opacity:1;fill:#ffffff;fill-opacity:1;fill-rule:evenodd;stroke:none;stroke-width:0.02968907;stroke-linecap:round;stroke-linejoin:round;stroke-miterlimit:4;stroke-dasharray:none;stroke-dashoffset:0;stroke-opacity:1;paint-order:normal"
       d="m 13.038216,281.48856 c -0.430031,0.006 -0.795192,0.29917 -0.843363,0.82293 -0.434476,0.28928 -1.190508,0.99211 -2.059205,1.8837 -0.5390271,0.46869 -1.1225363,0.84249 -1.7740489,1.11433 -0.9812413,0.37073 -1.8406285,0.55004 -2.7294783,0.77559 -1.2949548,0.45358 -2.5607337,1.12257 -3.7437973,2.40134 -0.5341298,0.66109 -1.02784021,1.29625 -1.33489086,2.69973 -0.16772481,1.14834 -0.0193419,2.17901 0.41758587,3.10237 0.14921619,0.32562 0.29123389,0.65484 0.52204039,0.93967 0.3555589,0.3278 0.4391609,0.59475 1.8047907,1.14848 l 2.1105404,-0.007 c 0.23785,-0.055 0.4614669,-0.15981 0.6711937,-0.31325 0.1195675,0.12674 0.3129329,0.24119 0.8501689,0.2983 l 1.9240674,-0.0223 c 0.4350044,0.006 0.6042107,-0.4347 0.4102038,-0.701 -0.1274401,-0.30633 -0.4262361,-0.35533 -0.6861333,-0.46267 l -0.3430667,-0.015 c 0.317425,-0.34752 0.4334362,-0.60692 0.5294814,-0.85759 0.2296863,-0.0287 0.6823816,-0.321 1.0515785,-0.51461 l 0.044704,0.79798 c 0.00278,0.27806 -0.018384,0.5606 0.2014093,0.79797 0.09347,0.28733 0.0013,0.58839 0.439964,0.85016 0.152206,0.0669 0.292502,0.10582 0.402707,0.0745 l 1.31257,-0.015 c 0.35734,-0.0735 0.460379,-0.54627 0.216291,-0.74576 -0.119011,-0.13378 -0.376645,-0.19829 -0.570547,-0.29463 -0.183592,-0.10722 -0.211337,-0.19309 -0.246861,-0.29221 -0.0034,-0.008 -0.0066,-0.0188 -0.01043,-0.0285 -0.09122,-0.24183 -0.02422,-0.54857 -0.0074,-0.83522 0.201722,-1.37659 0.876342,-2.25362 1.490391,-3.19459 0.296959,-0.29168 0.535313,-0.59563 0.79278,-0.84228 0.716104,-0.68599 1.11879,-1.40604 1.321856,-2.10552 0.09377,-0.31308 0.155838,-0.70011 0.22079,-1.0804 0.05287,-0.33748 0.12739,-0.39785 0.49222,-0.41766 l 1.096279,0.0409 c 0.705062,-0.0277 1.199073,-0.36144 1.506425,-0.96583 0.520181,-0.26174 0.711112,-1.16873 0.432581,-1.81967 -0.317078,-0.74101 -0.861112,-0.9865 -1.357326,-1.23049 -0.536643,-0.21842 -1.25972,-0.36903 -1.894249,-0.55186 -0.613893,-0.19426 -1.256879,-0.30124 -1.968826,-0.20135 -0.224613,-0.16185 -0.467685,-0.23715 -0.692939,-0.23383 z m -0.0043,0.41141 c 0.204948,-10e-4 0.508944,0.12909 0.816658,0.61962 0.0034,-0.0835 -0.03783,-0.21186 -0.123886,-0.38493 1.036252,-0.0934 1.455582,0.10315 2.025466,0.22903 l 1.282751,0.358 c 0.449237,0.14241 0.833239,0.35003 1.155916,0.61901 0.563687,0.51568 0.675357,1.47509 0.03731,1.8793 -0.376685,0.80603 -0.953481,0.90963 -1.595997,0.85016 -0.399154,-0.0322 -0.86149,-0.10159 -1.230494,0.0745 -0.0042,0.002 -0.0083,0.004 -0.01228,0.006 -0.278212,0.13948 -0.316561,0.46819 -0.390362,0.70989 -0.162843,0.70944 -0.252924,1.46568 -0.678634,2.00614 -0.320233,0.51564 -0.822457,0.95725 -1.266658,1.43277 -0.745915,0.7985 -1.193216,1.71763 -1.440498,2.25127 -0.336705,0.81491 -0.527516,1.64377 -0.447465,2.49836 0.10897,0.29988 0.272613,0.5232 0.522042,0.62643 0.149153,0.0522 0.380369,0.10549 0.43956,0.17771 -0.01927,0.0767 -0.469533,0.006 -0.715492,0.0237 -0.196284,-0.0961 -0.249266,-0.0993 -0.332568,-0.1223 0.05345,0.0422 0.147662,0.0697 0.131216,0.13725 -0.551598,0.0405 -0.614161,-0.13952 -0.675001,-0.33181 -0.03923,-0.12395 -0.0071,-0.29781 -0.07827,-0.42888 -0.143243,-0.0598 -0.142383,-0.24193 -0.149156,-0.41766 l -0.08202,-1.4244 c -0.08741,-0.33622 -0.0027,-0.85807 0.268489,-1.581 -0.105339,0.0916 -0.404563,0.58926 -0.5071005,1.44679 -0.4002292,0.2576 -0.8005029,0.54631 -1.2007325,0.70101 0.2378133,-1.735 -0.6158513,-2.96385 -1.2752527,-3.31122 2.1053883,2.31052 0.7636292,4.23439 -0.2908679,4.83258 0.2572588,0.25123 0.8739925,0.15498 1.3200095,0.22374 0.144414,0.0891 0.3911191,0.16973 0.3615246,0.30402 -0.4731564,0.006 -1.1002846,0.008 -1.6372382,0.0237 -0.8013063,-10e-4 -1.3377725,-0.22167 -1.1106981,-1.07343 -0.1905761,0.1628 -0.2593452,0.43636 -0.2312284,0.79797 -0.1637697,0.16303 -0.3558842,0.22197 -0.5444195,0.26849 l -2.0434035,0.007 c -0.536408,-0.18124 -1.039618,-0.49992 -1.5064244,-0.96951 -0.2555706,-0.39713 -0.509454,-0.77492 -0.84249724,-2.04363 -0.19929461,-1.5975 0.20331264,-2.68383 0.81135124,-3.58045 0.8286774,-1.22197 1.81732,-2.01315 3.5798773,-2.71304 0.822142,-0.26398 1.5208865,-0.42271 2.1018881,-0.56576 0.9418994,-0.28291 2.0308738,-0.62774 3.2310422,-1.85236 0.591092,-0.53583 1.2223,-1.20555 1.760435,-1.56488 0.159316,0.4069 0.359394,0.75676 0.715954,0.88749 -0.384392,-0.43384 -0.827678,-1.19577 -0.36187,-1.56397 0.04327,-0.0342 0.115922,-0.0623 0.209081,-0.0633 z"
       id="path3164"
       inkscape:connector-curvature="0" />
  </g>
</svg>
