<?xml version="1.0" encoding="UTF-8" standalone="no"?>
<svg
   xmlns:dc="http://purl.org/dc/elements/1.1/"
   xmlns:cc="http://creativecommons.org/ns#"
   xmlns:rdf="http://www.w3.org/1999/02/22-rdf-syntax-ns#"
   xmlns:svg="http://www.w3.org/2000/svg"
   xmlns="http://www.w3.org/2000/svg"
   xmlns:sodipodi="http://sodipodi.sourceforge.net/DTD/sodipodi-0.dtd"
   xmlns:inkscape="http://www.inkscape.org/namespaces/inkscape"
   width="32"
   height="32"
   viewBox="0 0 32 32"
   version="1.1"
   id="svg4"
   sodipodi:docname="linkedin.svg"
   inkscape:version="0.92.5 (2060ec1f9f, 2020-04-08)">
  <metadata
     id="metadata10">
    <rdf:RDF>
      <cc:Work
         rdf:about="">
        <dc:format>image/svg+xml</dc:format>
        <dc:type
           rdf:resource="http://purl.org/dc/dcmitype/StillImage" />
      </cc:Work>
    </rdf:RDF>
  </metadata>
  <defs
     id="defs8" />
  <sodipodi:namedview
     pagecolor="#ffffff"
     bordercolor="#666666"
     borderopacity="1"
     objecttolerance="10"
     gridtolerance="10"
     guidetolerance="10"
     inkscape:pageopacity="0"
     inkscape:pageshadow="2"
     inkscape:window-width="780"
     inkscape:window-height="480"
     id="namedview6"
     showgrid="false"
     inkscape:zoom="7.375"
     inkscape:cx="16"
     inkscape:cy="16"
     inkscape:window-x="0"
     inkscape:window-y="27"
     inkscape:window-maximized="0"
     inkscape:current-layer="svg4" />
  <path
     d="M26.111,3H5.889c-1.595,0-2.889,1.293-2.889,2.889V26.111c0,1.595,1.293,2.889,2.889,2.889H26.111c1.595,0,2.889-1.293,2.889-2.889V5.889c0-1.595-1.293-2.889-2.889-2.889ZM10.861,25.389h-3.877V12.87h3.877v12.519Zm-1.957-14.158c-1.267,0-2.293-1.034-2.293-2.31s1.026-2.31,2.293-2.31,2.292,1.034,2.292,2.31-1.026,2.31-2.292,2.31Zm16.485,14.158h-3.858v-6.571c0-1.802-.685-2.809-2.111-2.809-1.551,0-2.362,1.048-2.362,2.809v6.571h-3.718V12.87h3.718v1.686s1.118-2.069,3.775-2.069,4.556,1.621,4.556,4.975v7.926Z"
     fill-rule="evenodd"
     id="path2"
     style="fill:#ffffff;fill-opacity:1" />
</svg>
