<?xml version="1.0" encoding="UTF-8" standalone="no"?>
<svg
   xmlns:dc="http://purl.org/dc/elements/1.1/"
   xmlns:cc="http://creativecommons.org/ns#"
   xmlns:rdf="http://www.w3.org/1999/02/22-rdf-syntax-ns#"
   xmlns:svg="http://www.w3.org/2000/svg"
   xmlns="http://www.w3.org/2000/svg"
   xmlns:sodipodi="http://sodipodi.sourceforge.net/DTD/sodipodi-0.dtd"
   xmlns:inkscape="http://www.inkscape.org/namespaces/inkscape"
   width="32"
   height="32"
   viewBox="0 0 32 32"
   version="1.1"
   id="svg4"
   sodipodi:docname="youtube.svg"
   inkscape:version="0.92.5 (2060ec1f9f, 2020-04-08)">
  <metadata
     id="metadata10">
    <rdf:RDF>
      <cc:Work
         rdf:about="">
        <dc:format>image/svg+xml</dc:format>
        <dc:type
           rdf:resource="http://purl.org/dc/dcmitype/StillImage" />
      </cc:Work>
    </rdf:RDF>
  </metadata>
  <defs
     id="defs8" />
  <sodipodi:namedview
     pagecolor="#ffffff"
     bordercolor="#666666"
     borderopacity="1"
     objecttolerance="10"
     gridtolerance="10"
     guidetolerance="10"
     inkscape:pageopacity="0"
     inkscape:pageshadow="2"
     inkscape:window-width="780"
     inkscape:window-height="480"
     id="namedview6"
     showgrid="false"
     inkscape:zoom="7.375"
     inkscape:cx="16"
     inkscape:cy="16"
     inkscape:window-x="0"
     inkscape:window-y="27"
     inkscape:window-maximized="0"
     inkscape:current-layer="svg4" />
  <path
     d="M31.331,8.248c-.368-1.386-1.452-2.477-2.829-2.848-2.496-.673-12.502-.673-12.502-.673,0,0-10.007,0-12.502,.673-1.377,.37-2.461,1.462-2.829,2.848-.669,2.512-.669,7.752-.669,7.752,0,0,0,5.241,.669,7.752,.368,1.386,1.452,2.477,2.829,2.847,2.496,.673,12.502,.673,12.502,.673,0,0,10.007,0,12.502-.673,1.377-.37,2.461-1.462,2.829-2.847,.669-2.512,.669-7.752,.669-7.752,0,0,0-5.24-.669-7.752ZM12.727,20.758V11.242l8.364,4.758-8.364,4.758Z"
     id="path2"
     style="fill:#ffffff;fill-opacity:1" />
</svg>
